<?xml version="1.0" encoding="utf-8"?>
<!-- Generator: Adobe Illustrator 19.2.0, SVG Export Plug-In . SVG Version: 6.00 Build 0)  -->
<svg version="1.1" id="Laag_1" xmlns:sketch="http://www.bohemiancoding.com/sketch/ns"
	 xmlns="http://www.w3.org/2000/svg" xmlns:xlink="http://www.w3.org/1999/xlink" x="0px" y="0px" viewBox="0 0 572 499"
	 style="enable-background:new 0 0 572 499;" xml:space="preserve">
<style type="text/css">
	.st0{fill:#FFFFFF;}
</style>
<title>discover</title>
<desc>Created with Sketch.</desc>
<g id="Page-1" sketch:type="MSPage">
	<g id="discover" transform="translate(1.000000, 1.000000)" sketch:type="MSLayerGroup">
		<path id="Shape" sketch:type="MSShapeGroup" class="st0" d="M492,100.4c-33.1-5.3-66.2-9.3-99.9-11.9l69.5-69.4
			c2-2,3.3-5.3,3.3-7.9s-1.3-6-3.3-7.9c-4.6-4.6-11.2-4.6-15.9,0L363,85.8l-10.6-23.1h-67.5h-67.5l-10.6,23.1L124.1,3.2
			c-2-2-5.3-3.3-7.9-3.3c-2.6,0-6,1.3-7.9,3.3c-4.6,4.6-4.6,11.2,0,15.9l69.5,69.4c-33.1,2.6-66.8,6.6-99.9,11.9
			c-43.7,7.3-78.1,45-78.1,80v220.2c0,35.1,34.4,72.7,78.1,80c137,21.8,277.9,21.8,414.8,0c43.7-7.3,78.1-45,78.1-80V180.4
			C570.7,145.4,535.6,107.7,492,100.4L492,100.4z"/>
		<g id="Group" transform="translate(81.762894, 197.611447)" sketch:type="MSShapeGroup">
			<path id="Shape_1_" d="M-2,95.9c0-27.1,9.3-49.6,27.8-68.1S66.8,0,94,0c12.6,0,23.8,2.6,35.7,7.3c11.2,4.6,21.8,11.2,30.4,20.5
				c9.3,9.3,16.5,19.2,21.2,31.1s7.3,23.8,7.3,36.4c0,13.2-2,25.1-6.6,37s-11.2,21.8-19.8,31.1c-9.3,9.3-19.2,16.5-31.1,21.8
				c-11.9,5.3-23.8,7.3-37.1,7.3c-13.9,0-26.5-2.6-37.7-7.3c-11.9-4.6-21.8-11.9-31.1-21.8c-8.6-9.3-15.2-19.2-19.2-31.1
				C0.7,121-2,109.1-2,95.9L-2,95.9z M94,37.7c-16.5,0-29.8,5.3-41,16.5s-16.5,25.1-16.5,41s6,29.8,17.2,41.7s25.1,17.9,40.4,17.9
				c15.9,0,29.8-6,40.4-17.2c11.2-11.2,16.5-25.8,16.5-43c0-15.9-5.3-29.1-16.5-40.3C122.4,43.6,109.2,37.7,94,37.7L94,37.7z"/>
			<path id="Shape_2_" d="M218.3,95.9c0-27.1,9.3-49.6,27.8-68.1S287.1,0,314.3,0c12.6,0,23.8,2.6,35.7,7.3
				c11.2,4.6,21.8,11.2,30.4,20.5C389.7,37,397,47,401.6,58.9c4.6,11.9,7.3,23.8,7.3,36.4c0,13.2-2,25.1-6.6,37
				c-4.6,11.9-11.2,21.8-19.8,31.1c-9.3,9.3-19.2,16.5-31.1,21.8c-11.9,5.3-23.8,7.3-37.1,7.3c-13.9,0-26.5-2.6-37.7-7.3
				c-11.2-4.6-21.8-11.9-31.1-21.8c-8.6-9.3-15.2-19.2-19.2-31.1C220.3,121,218.3,109.1,218.3,95.9L218.3,95.9z M313.6,37.7
				c-16.5,0-29.8,5.3-41,16.5S256,79.4,256,95.2s6,29.8,17.2,41.7s25.1,17.9,40.4,17.9c15.9,0,29.8-6,40.4-17.2
				c11.2-11.2,16.5-25.8,16.5-43c0-15.9-5.3-29.1-16.5-40.3C342.7,43.6,329.5,37.7,313.6,37.7L313.6,37.7z"/>
		</g>
	</g>
</g>
</svg>
